<?xml version="1.0" standalone="no"?>
<!DOCTYPE svg PUBLIC "-//W3C//DTD SVG 20010904//EN"
 "http://www.w3.org/TR/2001/REC-SVG-20010904/DTD/svg10.dtd">
<svg version="1.0" xmlns="http://www.w3.org/2000/svg"
 width="300.000000pt" height="300.000000pt" viewBox="0 0 300.000000 300.000000"
 preserveAspectRatio="xMidYMid meet">
<metadata>
Created by potrace 1.11, written by Peter Selinger 2001-2013
</metadata>
<g transform="translate(0.000000,300.000000) scale(0.100000,-0.100000)"
fill="#000000" stroke="none">
<path d="M556 2984 c-228 -50 -417 -205 -501 -413 -56 -137 -56 -139 -52
-1106 3 -821 4 -895 21 -950 73 -245 253 -423 496 -492 61 -17 123 -18 980
-18 857 0 919 1 980 18 245 69 428 252 497 497 17 61 18 123 18 980 0 857 -1
919 -18 980 -69 243 -247 423 -492 496 -56 17 -127 18 -960 20 -769 2 -910 0
-969 -12z m346 -899 c77 -16 173 -59 236 -106 24 -18 205 -215 401 -438 197
-223 375 -418 397 -433 166 -114 369 -123 538 -24 63 37 153 138 186 208 139
297 -47 641 -374 689 -132 20 -278 -25 -383 -116 -64 -56 -99 -108 -138 -205
l-33 -81 -173 198 c-96 108 -180 206 -188 217 -13 18 -11 22 25 53 21 18 42
32 45 30 3 -1 60 -64 127 -140 67 -76 123 -139 126 -140 2 -1 19 18 37 43 108
152 270 244 452 257 266 17 506 -143 605 -405 23 -59 26 -82 26 -192 0 -110
-3 -133 -26 -192 -78 -205 -242 -351 -443 -393 -90 -19 -148 -19 -241 0 -192
40 -221 65 -639 540 -194 220 -369 413 -388 428 -59 45 -133 77 -213 94 -261
53 -521 -133 -566 -404 -24 -144 24 -294 129 -404 65 -68 113 -100 194 -127
123 -43 244 -35 364 22 124 59 193 136 250 276 l32 80 174 -197 c96 -109 181
-206 188 -216 14 -17 11 -22 -25 -52 -21 -19 -42 -33 -45 -32 -3 1 -61 65
-129 142 -67 77 -123 140 -125 140 -2 0 -24 -28 -49 -62 -85 -116 -214 -198
-358 -227 -95 -20 -153 -20 -243 -1 -263 55 -457 284 -472 555 -10 179 46 321
176 451 148 148 343 207 543 164z"/>
</g>
</svg>
